<svg width="114" height="62" viewBox="0 0 114 62" fill="none" xmlns="http://www.w3.org/2000/svg">
<path d="M35 30.5L35.4802 31.0093L35.5015 30.9893L35.521 30.9675L35 30.5ZM21 17.5L21.6326 17.7997L21 17.5ZM113.586 56.3825C113.798 56.0588 113.706 55.625 113.383 55.4138L108.106 51.9709C107.783 51.7597 107.349 51.8508 107.138 52.1746C106.926 52.4984 107.018 52.9321 107.341 53.1434L112.031 56.2037L108.971 60.8935C108.76 61.2173 108.851 61.651 109.175 61.8623C109.498 62.0736 109.932 61.9824 110.143 61.6586L113.586 56.3825ZM1.1624 1.61095C1.23747 1.99019 1.60577 2.23677 1.98501 2.16169C2.36425 2.08662 2.61082 1.71832 2.53575 1.33908L1.1624 1.61095ZM3.4438 5.22376C3.34414 4.85022 2.96054 4.62821 2.587 4.72787C2.21347 4.82753 1.99146 5.21113 2.09112 5.58466L3.4438 5.22376ZM3.24967 9.49155C3.36941 9.85914 3.76447 10.0601 4.13205 9.94033C4.49964 9.82059 4.70057 9.42553 4.58083 9.05794L3.24967 9.49155ZM5.9166 12.8254C5.77802 12.4645 5.3731 12.2843 5.01219 12.4228C4.65129 12.5614 4.47105 12.9663 4.60964 13.3272L5.9166 12.8254ZM6.16972 17.0863C6.3277 17.4392 6.7418 17.5971 7.09465 17.4392C7.4475 17.2812 7.60548 16.8671 7.4475 16.5142L6.16972 17.0863ZM9.18588 20.1048C9.00652 19.7623 8.58348 19.6301 8.24101 19.8095C7.89854 19.9888 7.76631 20.4119 7.94568 20.7543L9.18588 20.1048ZM9.96939 24.3028C10.1737 24.631 10.6054 24.7314 10.9336 24.527C11.2618 24.3227 11.3622 23.891 11.1579 23.5628L9.96939 24.3028ZM13.4061 26.8308C13.1712 26.5237 12.7319 26.4652 12.4248 26.7001C12.1178 26.935 12.0593 27.3744 12.2942 27.6814L13.4061 26.8308ZM15.0014 30.7944C15.275 31.0675 15.7182 31.0671 15.9913 30.7935C16.2644 30.5199 16.264 30.0767 15.9904 29.8035L15.0014 30.7944ZM18.9771 32.2845C18.6554 32.0701 18.2208 32.1571 18.0064 32.4789C17.792 32.8006 17.8791 33.2352 18.2008 33.4495L18.9771 32.2845ZM22.0107 35.283C22.381 35.3941 22.7712 35.184 22.8824 34.8138C22.9935 34.4435 22.7834 34.0532 22.4131 33.9421L22.0107 35.283ZM26.1305 34.3335C25.7454 34.3676 25.4609 34.7074 25.4949 35.0925C25.529 35.4776 25.8689 35.7621 26.2539 35.7281L26.1305 34.3335ZM30.3588 34.5991C30.7097 34.4369 30.8626 34.0209 30.7004 33.67C30.5381 33.3191 30.1221 33.1662 29.7712 33.3284L30.3588 34.5991ZM33.0379 31.2769C32.735 31.5172 32.6842 31.9575 32.9245 32.2604C33.1647 32.5632 33.605 32.614 33.9079 32.3738L33.0379 31.2769ZM36.7994 29.478C37.0442 29.1788 37.0001 28.7378 36.7009 28.493C36.4017 28.2482 35.9607 28.2923 35.7159 28.5915L36.7994 29.478ZM37.9132 25.5635C37.7079 25.8911 37.8071 26.323 38.1347 26.5283C38.4623 26.7336 38.8942 26.6344 39.0995 26.3068L37.9132 25.5635ZM40.8639 22.7737C40.995 22.41 40.8065 22.0089 40.4428 21.8777C40.0792 21.7465 39.678 21.935 39.5469 22.2987L40.8639 22.7737ZM40.1224 18.8278C40.1483 19.2135 40.482 19.5052 40.8677 19.4793C41.2535 19.4535 41.5452 19.1198 41.5193 18.734L40.1224 18.8278ZM39.9605 14.8354C39.7105 14.5405 39.2687 14.5043 38.9739 14.7543C38.6791 15.0044 38.6428 15.4462 38.8929 15.741L39.9605 14.8354ZM36.0424 13.7956C36.4019 13.938 36.8087 13.7621 36.9511 13.4027C37.0935 13.0433 36.9176 12.6365 36.5582 12.494L36.0424 13.7956ZM32.6282 11.6293C32.2426 11.6009 31.9071 11.8904 31.8786 12.276C31.8502 12.6615 32.1397 12.9971 32.5253 13.0255L32.6282 11.6293ZM28.8811 13.2088C29.262 13.1426 29.5172 12.7802 29.451 12.3993C29.3848 12.0184 29.0224 11.7633 28.6415 11.8295L28.8811 13.2088ZM24.8149 13.0286C24.4662 13.1957 24.3191 13.6137 24.4861 13.9624C24.6532 14.311 25.0713 14.4582 25.4199 14.2911L24.8149 13.0286ZM22.5799 16.3701C22.8348 16.0794 22.8058 15.6372 22.5151 15.3823C22.2244 15.1274 21.7821 15.1565 21.5272 15.4472L22.5799 16.3701ZM19.5844 19.1528C19.4602 19.5189 19.6564 19.9164 20.0225 20.0405C20.3886 20.1647 20.7861 19.9685 20.9102 19.6024L19.5844 19.1528ZM19.9679 23.4602C20.0297 23.0786 19.7705 22.7191 19.3889 22.6572C19.0072 22.5954 18.6477 22.8546 18.5859 23.2363L19.9679 23.4602ZM18.2109 27.4016C18.203 27.7881 18.5099 28.1078 18.8964 28.1158C19.2829 28.1237 19.6027 27.8168 19.6106 27.4303L18.2109 27.4016ZM19.8001 31.4075C19.7553 31.0235 19.4078 30.7485 19.0238 30.7933C18.6398 30.8381 18.3648 31.1857 18.4095 31.5697L19.8001 31.4075ZM19.181 35.6715C19.2791 36.0455 19.6618 36.2691 20.0357 36.171C20.4096 36.0729 20.6332 35.6902 20.5351 35.3163L19.181 35.6715ZM21.8195 39.0779C21.6682 38.7222 21.2571 38.5565 20.9013 38.7078C20.5456 38.8591 20.3799 39.2702 20.5312 39.6259L21.8195 39.0779ZM22.4519 43.3492C22.6541 43.6787 23.0851 43.7819 23.4147 43.5797C23.7442 43.3776 23.8474 42.9465 23.6452 42.617L22.4519 43.3492ZM25.9594 45.8379C25.7119 45.5409 25.2705 45.5007 24.9735 45.7482C24.6765 45.9957 24.6364 46.4371 24.8838 46.7341L25.9594 45.8379ZM27.7807 49.7583C28.0663 50.0189 28.509 49.9986 28.7696 49.713C29.0302 49.4273 29.0098 48.9846 28.7242 48.724L27.7807 49.7583ZM31.8218 51.2136C31.5065 50.99 31.0695 51.0643 30.8459 51.3797C30.6223 51.6951 30.6967 52.132 31.012 52.3556L31.8218 51.2136ZM34.5267 54.5653C34.8645 54.7533 35.2908 54.632 35.4789 54.2942C35.667 53.9565 35.5456 53.5302 35.2078 53.3421L34.5267 54.5653ZM38.8077 55.1241C38.4537 54.9687 38.0408 55.1297 37.8854 55.4837C37.7301 55.8378 37.8911 56.2507 38.2451 56.406L38.8077 55.1241ZM42.1014 57.9099C42.4668 58.0359 42.8653 57.8419 42.9914 57.4764C43.1174 57.1109 42.9233 56.7124 42.5578 56.5864L42.1014 57.9099ZM46.41 57.7622C46.0366 57.662 45.6526 57.8835 45.5525 58.2569C45.4523 58.6303 45.6737 59.0142 46.0471 59.1144L46.41 57.7622ZM50.0515 60.0572C50.4302 60.1347 50.8001 59.8905 50.8776 59.5117C50.955 59.133 50.7108 58.7631 50.3321 58.6856L50.0515 60.0572ZM54.3067 59.3882C53.9244 59.3307 53.5679 59.594 53.5103 59.9763C53.4528 60.3586 53.7161 60.7151 54.0984 60.7726L54.3067 59.3882ZM58.1834 61.2896C58.568 61.3295 58.912 61.0502 58.9519 60.6656C58.9919 60.2811 58.7125 59.937 58.3279 59.8971L58.1834 61.2896ZM62.3982 60.2343C62.0124 60.2101 61.6799 60.5032 61.6557 60.889C61.6314 61.2749 61.9245 61.6073 62.3104 61.6316L62.3982 60.2343ZM66.3859 61.8138C66.7724 61.8243 67.0942 61.5196 67.1047 61.1331C67.1153 60.7466 66.8105 60.4248 66.4241 60.4143L66.3859 61.8138ZM70.4646 60.4592C70.078 60.4609 69.766 60.7757 69.7677 61.1623C69.7694 61.5489 70.0842 61.8609 70.4708 61.8592L70.4646 60.4592ZM74.6118 61.7799C74.9982 61.767 75.301 61.4434 75.2881 61.057C75.2752 60.6706 74.9516 60.3678 74.5652 60.3807L74.6118 61.7799ZM78.5883 60.1942C78.2024 60.217 77.908 60.5483 77.9307 60.9342C77.9535 61.3202 78.2848 61.6146 78.6707 61.5918L78.5883 60.1942ZM82.7609 61.3019C83.1462 61.2701 83.4327 60.932 83.401 60.5467C83.3692 60.1614 83.0311 59.8749 82.6458 59.9066L82.7609 61.3019ZM86.7088 59.5271C86.3243 59.5671 86.045 59.9112 86.085 60.2958C86.125 60.6803 86.4692 60.9596 86.8537 60.9195L86.7088 59.5271ZM90.8958 60.4586C91.2795 60.4112 91.552 60.0617 91.5046 59.678C91.4571 59.2943 91.1076 59.0218 90.7239 59.0692L90.8958 60.4586ZM94.7925 58.5278C94.4097 58.5823 94.1436 58.9367 94.198 59.3194C94.2524 59.7022 94.6068 59.9683 94.9896 59.9139L94.7925 58.5278ZM98.9973 59.31C99.3791 59.2493 99.6394 58.8906 99.5787 58.5088C99.518 58.127 99.1593 57.8667 98.7775 57.9274L98.9973 59.31ZM102.826 57.2512C102.445 57.3178 102.19 57.6805 102.257 58.0614C102.323 58.4422 102.686 58.6969 103.067 58.6303L102.826 57.2512ZM107.061 57.9021C107.441 57.8301 107.69 57.4638 107.618 57.084C107.546 56.7042 107.18 56.4546 106.8 56.5266L107.061 57.9021ZM110.808 55.7386C110.43 55.8157 110.185 56.1853 110.262 56.5641C110.339 56.9429 110.709 57.1876 111.088 57.1105L110.808 55.7386ZM0.80814 -0.39356C0.906742 0.247356 1.02505 0.917134 1.1624 1.61095L2.53575 1.33908C2.40196 0.663247 2.28719 0.0131889 2.19186 -0.60644L0.80814 -0.39356ZM2.09112 5.58466C2.42868 6.84986 2.81568 8.15925 3.24967 9.49155L4.58083 9.05794C4.15453 7.74925 3.77473 6.46411 3.4438 5.22376L2.09112 5.58466ZM4.60964 13.3272C5.09173 14.5828 5.61238 15.8414 6.16972 17.0863L7.4475 16.5142C6.90104 15.2937 6.39008 14.0585 5.9166 12.8254L4.60964 13.3272ZM7.94568 20.7543C8.58432 21.9737 9.25949 23.1625 9.96939 24.3028L11.1579 23.5628C10.4681 22.4549 9.81001 21.2965 9.18588 20.1048L7.94568 20.7543ZM12.2942 27.6814C13.1552 28.8069 14.0583 29.8531 15.0014 30.7944L15.9904 29.8035C15.0975 28.9123 14.235 27.9142 13.4061 26.8308L12.2942 27.6814ZM18.2008 33.4495C19.4137 34.2577 20.6852 34.8852 22.0107 35.283L22.4131 33.9421C21.2399 33.59 20.0932 33.0282 18.9771 32.2845L18.2008 33.4495ZM26.2539 35.7281C27.5999 35.6089 28.9703 35.2412 30.3588 34.5991L29.7712 33.3284C28.5184 33.9077 27.3044 34.2296 26.1305 34.3335L26.2539 35.7281ZM33.9079 32.3738C34.4301 31.9596 34.9543 31.5052 35.4802 31.0093L34.5198 29.9907C34.021 30.461 33.5269 30.8891 33.0379 31.2769L33.9079 32.3738ZM35.521 30.9675C35.9757 30.4608 36.4015 29.9644 36.7994 29.478L35.7159 28.5915C35.3322 29.0604 34.9203 29.5407 34.479 30.0325L35.521 30.9675ZM39.0995 26.3068C39.8843 25.0543 40.466 23.877 40.8639 22.7737L39.5469 22.2987C39.1884 23.2927 38.6545 24.3803 37.9132 25.5635L39.0995 26.3068ZM41.5193 18.734C41.4156 17.1886 40.8509 15.885 39.9605 14.8354L38.8929 15.741C39.5924 16.5656 40.0391 17.5856 40.1224 18.8278L41.5193 18.734ZM36.5582 12.494C35.3482 12.0145 34.0054 11.7308 32.6282 11.6293L32.5253 13.0255C33.7823 13.1182 34.9831 13.3757 36.0424 13.7956L36.5582 12.494ZM28.6415 11.8295C27.3024 12.0621 25.9972 12.462 24.8149 13.0286L25.4199 14.2911C26.4741 13.7859 27.6545 13.4219 28.8811 13.2088L28.6415 11.8295ZM21.5272 15.4472C21.0637 15.9759 20.6705 16.5605 20.3674 17.2003L21.6326 17.7997C21.876 17.2858 22.1952 16.8089 22.5799 16.3701L21.5272 15.4472ZM20.3674 17.2003C20.0884 17.7894 19.8249 18.4434 19.5844 19.1528L20.9102 19.6024C21.1353 18.9388 21.3789 18.3352 21.6326 17.7997L20.3674 17.2003ZM18.5859 23.2363C18.3747 24.5397 18.241 25.9378 18.2109 27.4016L19.6106 27.4303C19.6393 26.033 19.767 24.7002 19.9679 23.4602L18.5859 23.2363ZM18.4095 31.5697C18.5662 32.9133 18.8177 34.2868 19.181 35.6715L20.5351 35.3163C20.1892 33.9979 19.9495 32.6891 19.8001 31.4075L18.4095 31.5697ZM20.5312 39.6259C21.0636 40.8774 21.6997 42.1231 22.4519 43.3492L23.6452 42.617C22.9302 41.4515 22.3255 40.2675 21.8195 39.0779L20.5312 39.6259ZM24.8838 46.7341C25.7483 47.7715 26.7112 48.7827 27.7807 49.7583L28.7242 48.724C27.7016 47.7911 26.7828 46.826 25.9594 45.8379L24.8838 46.7341ZM31.012 52.3556C32.0992 53.1266 33.2692 53.865 34.5267 54.5653L35.2078 53.3421C33.9934 52.6658 32.8665 51.9544 31.8218 51.2136L31.012 52.3556ZM38.2451 56.406C39.4623 56.9402 40.7466 57.4426 42.1014 57.9099L42.5578 56.5864C41.2377 56.1311 39.9888 55.6424 38.8077 55.1241L38.2451 56.406ZM46.0471 59.1144C47.327 59.4578 48.6611 59.7728 50.0515 60.0572L50.3321 58.6856C48.9683 58.4067 47.6616 58.0981 46.41 57.7622L46.0471 59.1144ZM54.0984 60.7726C55.4146 60.9707 56.7759 61.1435 58.1834 61.2896L58.3279 59.8971C56.941 59.7532 55.601 59.583 54.3067 59.3882L54.0984 60.7726ZM62.3104 61.6316C63.6314 61.7146 64.9896 61.7757 66.3859 61.8138L66.4241 60.4143C65.0438 60.3766 63.7022 60.3163 62.3982 60.2343L62.3104 61.6316ZM70.4708 61.8592C71.8181 61.8532 73.1982 61.827 74.6118 61.7799L74.5652 60.3807C73.1646 60.4274 71.798 60.4532 70.4646 60.4592L70.4708 61.8592ZM78.6707 61.5918C80.0059 61.5131 81.3691 61.4167 82.7609 61.3019L82.6458 59.9066C81.2647 60.0205 79.9124 60.1162 78.5883 60.1942L78.6707 61.5918ZM86.8537 60.9195C88.1766 60.7819 89.5239 60.6284 90.8958 60.4586L90.7239 59.0692C89.3607 59.2379 88.0225 59.3904 86.7088 59.5271L86.8537 60.9195ZM94.9896 59.9139C96.3038 59.727 97.6397 59.5259 98.9973 59.31L98.7775 57.9274C97.4273 58.1421 96.099 58.3421 94.7925 58.5278L94.9896 59.9139ZM103.067 58.6303C104.379 58.4008 105.71 58.1582 107.061 57.9021L106.8 56.5266C105.455 56.7815 104.131 57.0229 102.826 57.2512L103.067 58.6303ZM111.088 57.1105C111.768 56.972 112.454 56.8302 113.144 56.685L112.856 55.315C112.169 55.4595 111.486 55.6007 110.808 55.7386L111.088 57.1105Z" fill="black"/>
</svg>
